HIERARCHY
ROOT Hips
{
	OFFSET -246.377396 91.733124 -540.268188
	CHANNELS 6 Xposition Yposition Zposition Zrotation Yrotation Xrotation 
	JOINT LeftUpLeg
	{
		OFFSET 0.103454 1.857841 10.548504
		CHANNELS 3 Zrotation Yrotation Xrotation
		JOINT LeftLeg
		{
			OFFSET 43.499992 -0.000061 0.000000
			CHANNELS 3 Zrotation Yrotation Xrotation
			JOINT LeftFoot
			{
				OFFSET 42.372196 0.000008 -0.000002
				CHANNELS 3 Zrotation Yrotation Xrotation
				JOINT LeftToe
				{
					OFFSET 17.300022 0.000011 0.000012
					CHANNELS 3 Zrotation Yrotation Xrotation
					End Site
					{
						OFFSET 0.000000 0.000000 0.000000
					}
				}
			}
		}
	}
	JOINT RightUpLeg
	{
		OFFSET 0.103458 1.857820 -10.548491
		CHANNELS 3 Zrotation Yrotation Xrotation
		JOINT RightLeg
		{
			OFFSET 43.500046 0.000015 0.000006
			CHANNELS 3 Zrotation Yrotation Xrotation
			JOINT RightFoot
			{
				OFFSET 42.372269 -0.000046 0.000017
				CHANNELS 3 Zrotation Yrotation Xrotation
				JOINT RightToe
				{
					OFFSET 17.300032 0.000011 0.000015
					CHANNELS 3 Zrotation Yrotation Xrotation
					End Site
					{
						OFFSET 0.000000 0.000000 0.000000
					}
				}
			}
		}
	}
	JOINT Spine
	{
		OFFSET 6.901962 -2.603707 -0.000004
		CHANNELS 3 Zrotation Yrotation Xrotation
		JOINT Spine1
		{
			OFFSET 12.588104 -0.000004 -0.000001
			CHANNELS 3 Zrotation Yrotation Xrotation
			JOINT Spine2
			{
				OFFSET 12.343199 -0.000026 0.000003
				CHANNELS 3 Zrotation Yrotation Xrotation
				JOINT Neck
				{
					OFFSET 25.832890 0.000004 -0.000006
					CHANNELS 3 Zrotation Yrotation Xrotation
					JOINT Head
					{
						OFFSET 11.766623 0.000031 0.000004
						CHANNELS 3 Zrotation Yrotation Xrotation
						End Site
						{
							OFFSET 0.000000 0.000000 0.000000
						}
					}
				}
				JOINT LeftShoulder
				{
					OFFSET 19.745897 -1.480345 6.000100
					CHANNELS 3 Zrotation Yrotation Xrotation
					JOINT LeftArm
					{
						OFFSET 11.284126 0.000003 -0.000015
						CHANNELS 3 Zrotation Yrotation Xrotation
						JOINT LeftForeArm
						{
							OFFSET 33.000057 -0.000023 0.000027
							CHANNELS 3 Zrotation Yrotation Xrotation
							JOINT LeftHand
							{
								OFFSET 25.199987 0.000051 0.000021
								CHANNELS 3 Zrotation Yrotation Xrotation
								End Site
								{
									OFFSET 0.000000 0.000000 0.000000
								}
							}
						}
					}
				}
				JOINT RightShoulder
				{
					OFFSET 19.746086 -1.480362 -6.000076
					CHANNELS 3 Zrotation Yrotation Xrotation
					JOINT RightArm
					{
						OFFSET 11.284140 0.000004 -0.000015
						CHANNELS 3 Zrotation Yrotation Xrotation
						JOINT RightForeArm
						{
							OFFSET 33.000084 -0.000023 0.000011
							CHANNELS 3 Zrotation Yrotation Xrotation
							JOINT RightHand
							{
								OFFSET 25.199789 0.000148 0.000422
								CHANNELS 3 Zrotation Yrotation Xrotation
								End Site
								{
									OFFSET 0.000000 0.000000 0.000000
								}
							}
						}
					}
				}
			}
		}
	}
}
MOTION
Frames: 16
Frame Time: 0.033333
-297.447205 8.629106 130.574203 101.471886 63.929116 97.786924 99.737639 -3.507993 175.444405 -122.321803 3.410606 10.677427 46.215106 -11.434520 -4.936832 21.454550 0.003103 -0.000000 115.503239 17.357491 -169.933290 -79.885373 -1.668015 14.882487 66.112946 -7.318830 9.252201 21.454558 -0.003116 -0.000024 18.919481 -1.294223 0.071994 27.835043 -2.567854 -0.168617 27.516588 -2.568697 -0.153066 30.918928 -3.873554 -15.894142 -34.279466 26.507937 -31.569472 119.105180 -85.153696 59.573784 27.408601 51.303494 62.298258 -30.281183 -10.333041 0.933314 -3.067970 -41.748076 15.748413 99.608023 88.005218 -78.872409 62.363124 -60.527429 -92.043855 -37.386724 10.368299 -1.116610 47.679717 46.463540 51.763179 
-297.614288 8.660845 130.608002 102.024489 63.443749 97.249074 99.531368 -3.327814 176.071062 -121.831396 3.350458 10.642263 47.882638 -12.563086 -7.101506 21.454551 0.003084 -0.000002 114.881309 17.803404 -169.373897 -79.976304 -1.325455 13.986703 66.213397 -6.891427 8.654060 21.454560 -0.003109 -0.000008 19.017576 -1.413310 0.088097 28.032824 -2.805966 -0.167890 27.714317 -2.806809 -0.150906 32.395058 -2.235669 -16.475615 -33.937175 26.498318 -32.282466 114.233596 -84.510375 64.511000 26.511722 50.869979 63.255359 -29.745088 -10.018283 0.902606 -2.040150 -38.903945 14.466206 94.805580 88.347793 -83.639450 62.056777 -61.988762 -92.607120 -35.656586 10.297264 -1.071134 48.939347 46.294735 53.817526 
-297.862213 8.770334 130.737106 101.748611 63.024143 95.520387 99.588024 -3.751201 177.011101 -122.029799 3.361337 10.444554 49.170942 -12.918317 -8.191585 21.454553 0.003101 0.000002 114.455017 17.613197 -168.492694 -79.994247 -0.947529 12.853083 66.264972 -6.382668 7.799116 21.454557 -0.003098 0.000000 19.079843 -1.548536 0.144817 28.158327 -3.085818 -0.090469 27.839733 -3.086186 -0.071810 33.628030 -0.850431 -17.029236 -33.909574 26.238332 -32.943215 110.151369 -84.077382 68.638019 26.234767 50.503382 64.340949 -29.429106 -9.654549 0.872942 -0.868709 -36.437215 14.687936 84.658173 88.618317 -93.752495 61.598744 -63.602298 -92.826833 -33.534122 10.160067 -1.014854 50.230348 46.206004 55.818293 
-298.122009 8.943127 130.937302 101.522696 62.466916 93.594492 99.519729 -4.426998 177.837185 -122.525903 3.399826 10.508939 51.126889 -13.448380 -9.438961 21.454550 0.003091 -0.000002 113.926831 17.319901 -167.371996 -80.081810 -0.760622 11.527480 66.221484 -5.674070 7.083307 21.454558 -0.003117 -0.000031 19.099601 -1.740348 0.101449 28.202618 -3.453051 -0.223244 27.883896 -3.454205 -0.202335 33.910882 0.157725 -17.639254 -33.893219 25.987707 -33.615374 107.007816 -83.707609 71.818039 26.611633 50.163518 65.367881 -29.339354 -9.258461 0.845339 0.395920 -33.949913 15.087944 73.502104 88.779065 -104.882821 60.982210 -65.135778 -92.699840 -31.632092 10.451959 -0.994227 51.576486 46.724402 57.644597 
-298.427185 9.199175 131.217102 101.274705 61.664929 91.529118 99.264580 -5.277609 178.666629 -123.210998 3.429681 10.596994 53.552665 -13.838922 -10.608190 21.454551 0.003103 0.000002 113.210925 17.001603 -166.217148 -80.265562 -0.607448 10.390195 66.151926 -5.041882 6.534970 21.454558 -0.003110 -0.000019 19.045701 -1.993481 -0.046336 28.104999 -3.916256 -0.574567 27.786111 -3.919519 -0.550850 33.289321 0.934701 -18.203006 -32.966878 26.205520 -34.129830 108.394556 -83.000110 70.492374 26.984049 49.451598 66.562154 -28.398921 -8.464034 0.776185 1.886979 -31.819280 14.221908 96.804175 89.256905 -81.558736 59.083800 -66.107932 -90.612882 -30.365467 11.084844 -1.010388 51.588904 47.724851 57.494784 
-298.832703 9.616899 131.497498 100.838399 60.859991 88.951903 99.275673 -6.906405 179.399987 -123.959396 3.497063 10.703633 56.264175 -13.769008 -11.026787 21.454553 0.003091 0.000000 112.736234 16.313094 -165.105002 -80.314425 -0.405456 9.734385 65.859833 -4.617525 6.370358 21.454555 -0.003108 -0.000029 18.976748 -2.323600 -0.250966 27.983650 -4.517987 -1.055970 27.664529 -4.524162 -1.028603 32.200647 1.964898 -18.594060 -32.140128 26.024009 -34.270215 113.520353 -82.166213 65.429783 26.776806 48.597913 67.713922 -26.610098 -7.505576 0.682558 3.673128 -29.354886 13.228868 -154.980872 89.366653 26.727703 54.831089 -67.517567 -86.809765 -28.588774 11.346816 -0.994066 50.672200 48.796859 56.391842 
-299.213287 10.387140 131.918503 100.402490 60.357070 86.229123 100.155872 -8.729397 -179.988489 -124.800807 3.572103 10.632462 59.568675 -13.455268 -11.418803 21.454555 0.003101 0.000001 112.828305 15.670189 -163.933406 -80.529344 -0.304856 9.827551 65.847914 -4.750045 6.226346 21.454557 -0.003101 -0.000014 18.852550 -2.654431 -0.556920 27.759065 -5.098471 -1.734943 27.439739 -5.108724 -1.704029 31.654218 2.849982 -18.878668 -31.799653 25.868957 -34.461330 117.808319 -81.179954 61.213351 27.360643 47.712703 68.654350 -25.083540 -6.788900 0.611042 5.542360 -25.194705 11.929081 -150.826109 88.459979 30.905786 49.392643 -68.768797 -81.509449 -26.216464 11.690074 -0.975264 48.840046 49.986978 54.268595 
-299.498993 11.475250 132.658295 99.827081 60.500586 83.027534 102.418980 -10.681709 -179.601231 -125.819502 3.703298 10.338635 63.337239 -13.177387 -12.461384 21.454551 0.003095 0.000003 113.400142 15.029008 -163.155283 -81.321168 -0.301229 10.305101 66.076445 -5.060514 6.382081 21.454553 -0.003101 -0.000018 18.768713 -2.897093 -0.780876 27.611502 -5.525072 -2.232094 27.292024 -5.538327 -2.198586 31.025943 3.409448 -19.320973 -31.420841 25.758544 -34.783124 122.505849 -80.085949 56.586184 27.190903 46.501321 68.720664 -23.956171 -6.952894 0.605282 7.169998 -17.287388 11.594583 -141.596693 87.044477 40.213951 42.538749 -69.413020 -74.359334 -23.922384 11.926971 -0.954774 46.044774 51.685005 50.773475 
-299.655609 12.802460 133.576599 99.642365 60.860865 79.878393 105.700381 -12.591297 179.989514 -126.724202 3.824544 10.009037 67.067192 -12.849155 -13.588603 21.454551 0.003097 0.000001 113.704659 14.439807 -163.086804 -82.685724 -0.463608 10.642836 66.585124 -5.472071 5.986309 21.454555 -0.003108 -0.000022 18.583341 -3.053890 -0.871336 27.252047 -5.817587 -2.439778 26.932445 -5.832090 -2.404487 30.495780 3.578812 -19.726532 -31.007512 25.856298 -35.119747 125.190592 -79.911916 53.899809 25.048558 45.636520 65.863528 -23.345324 -7.460481 0.630214 8.610327 -5.650875 15.192919 -134.199762 85.333809 47.727064 36.247729 -69.294079 -66.170135 -21.809361 11.599402 -0.904273 41.262580 54.363344 44.928841 
-299.733185 14.390850 134.544800 99.224842 61.103999 76.318908 109.640990 -14.633998 178.935083 -127.353303 3.908261 9.676984 70.519811 -12.363395 -14.341596 21.454553 0.003090 0.000001 113.730115 13.825901 -163.161280 -84.288407 -0.795326 10.658245 67.728586 -5.994238 4.630051 21.454562 -0.003109 -0.000015 18.217603 -3.058789 -0.823191 26.517369 -5.848197 -2.327990 26.197720 -5.862017 -2.292516 30.728335 2.802782 -20.117279 -31.116344 26.724184 -35.941958 127.619872 -79.623941 51.477534 21.234957 44.659445 58.735788 -24.350377 -6.830523 0.602882 11.810101 6.919020 30.397736 -135.382819 83.956323 46.605246 31.975899 -67.716456 -60.259638 -20.720146 11.564617 -0.888208 37.187040 56.651122 39.564339 
-299.799713 16.199680 135.573303 97.921799 61.496414 71.968009 114.372187 -16.883406 177.448574 -127.699990 3.989904 9.365369 73.659670 -11.783252 -14.720606 21.454555 0.003078 -0.000001 113.942329 13.037597 -163.234910 -86.326822 -1.355872 10.965131 69.869823 -6.402559 4.188686 21.454555 -0.003103 -0.000014 17.913935 -2.922837 -0.771091 25.900077 -5.599436 -2.179120 25.580541 -5.612371 -2.145158 30.341387 2.011506 -20.428577 -31.053639 26.996676 -36.283457 128.848227 -79.835499 50.223382 16.663604 45.198872 54.267216 -26.672249 -6.545649 0.619872 13.244833 8.114240 48.176401 -136.249638 82.457274 45.804830 27.069611 -65.568880 -53.219656 -20.017616 11.421757 -0.870592 30.555855 59.097631 31.374512 
-299.822815 18.170099 136.627502 96.208207 61.799265 67.448118 119.467522 -18.888801 175.480127 -127.723390 4.034008 9.030701 76.295542 -11.121850 -14.674620 21.454553 0.003084 0.000000 113.805193 12.199602 -163.718815 -89.036529 -2.079613 12.034373 72.062785 -7.260400 3.976611 21.454560 -0.003108 -0.000019 17.607697 -2.632436 -0.845891 25.276732 -5.016945 -2.248268 24.957554 -5.030290 -2.217852 30.364518 1.094416 -20.778216 -31.296156 26.657675 -36.474843 130.111525 -79.923424 48.943541 12.159540 46.599218 50.974375 -27.028387 -8.578830 0.760208 10.002451 3.666759 53.798248 -138.176585 81.602490 43.898292 22.372694 -62.577374 -48.350650 -19.751763 11.103966 -0.847093 26.656172 60.640455 25.994370 
-299.730011 20.256920 137.668503 95.276146 61.835123 63.678762 124.586066 -20.177005 172.608388 -127.331105 4.037377 8.540263 78.407348 -10.265817 -14.040542 21.454551 0.003093 -0.000000 112.585485 11.217607 -165.248750 -92.543906 -2.980910 13.924713 73.905912 -8.662107 3.813231 21.454558 -0.003108 -0.000019 17.269382 -2.298623 -0.982847 24.590196 -4.336202 -2.433242 24.271407 -4.350683 -2.406968 29.953644 0.640639 -21.017494 -30.948700 25.368260 -35.915921 131.826845 -79.344272 47.259783 7.907952 46.187156 43.426650 -28.816148 -9.407106 0.845554 7.329753 -0.366702 53.387832 -144.106569 81.270037 37.912744 18.462280 -59.097556 -44.094824 -18.884513 10.357091 -0.789309 23.029675 61.883037 21.465708 
-299.585205 22.491911 138.520599 94.579132 61.557490 60.125923 129.503474 -20.686596 169.366616 -126.483806 4.012521 7.763546 80.642097 -9.061771 -12.820053 21.454553 0.003094 0.000001 110.684582 9.947411 -167.296604 -96.614699 -3.969834 16.186614 76.181102 -10.340301 3.495742 21.454558 -0.003111 -0.000023 17.013974 -1.867934 -1.078973 24.064855 -3.470868 -2.523769 23.746447 -3.485905 -2.502732 27.780575 0.874498 -21.107801 -30.143042 22.550197 -34.303252 130.548807 -79.081187 48.569062 2.692219 45.709385 34.873030 -30.981246 -10.721263 0.972222 6.528277 -2.562513 49.115969 -149.253499 81.088703 32.706781 15.444741 -55.495557 -40.616451 -18.528008 9.907960 -0.756509 19.896765 62.691581 17.687886 
-299.408203 24.778530 139.089005 93.656353 61.032344 56.508785 133.913686 -20.611807 166.559395 -125.195797 3.996977 6.916689 83.275353 -8.160844 -13.046221 21.454551 0.003081 0.000001 108.531959 8.687190 -169.641709 -100.942293 -4.694501 18.146821 77.996287 -11.798474 3.115525 21.454555 -0.003107 -0.000018 16.891918 -1.302616 -1.212559 23.803319 -2.328162 -2.667463 23.485295 -2.344101 -2.653342 25.140210 0.447523 -21.092427 -30.487642 19.929872 -32.931272 125.861890 -78.777121 53.316983 -2.774639 45.122169 27.389098 -32.922420 -11.871663 1.086703 7.893645 -4.061661 40.865234 -151.934088 80.511108 30.006490 12.782854 -51.493196 -36.463101 -19.399592 10.231785 -0.786898 14.610026 63.564602 11.440593 
-299.092590 27.024611 139.606400 93.289688 59.975461 53.241577 137.424444 -20.083705 163.869298 -123.749695 3.965417 5.958814 85.913944 -7.366994 -14.176262 21.454555 0.003095 0.000001 105.595831 7.248208 -172.307122 -105.506506 -5.383088 20.301332 79.825083 -13.311856 2.950548 21.454562 -0.003111 -0.000023 16.770899 -0.709710 -1.407085 23.544526 -1.118544 -2.929090 23.226808 -1.136059 -2.922273 22.838600 -0.850029 -21.049808 -31.416442 18.364601 -32.180269 120.832740 -78.210065 58.427289 -6.605001 44.162699 21.460967 -35.716709 -13.490104 1.253759 10.373941 -5.531013 32.196590 -153.117378 79.643353 28.828200 9.366755 -47.091794 -30.375740 -20.254926 10.319013 -0.802394 6.043788 64.073076 1.841921 
